<?xml version="1.0" encoding="UTF-8"?>
<svg id="Camada_2" data-name="Camada 2" xmlns="http://www.w3.org/2000/svg" xmlns:xlink="http://www.w3.org/1999/xlink" viewBox="0 0 1247.74 204.09">
  <defs>
    <style>
      .cls-1 {
        fill: url(#Gradiente_sem_nome_10);
      }
    </style>
    <linearGradient id="Gradiente_sem_nome_10" data-name="Gradiente sem nome 10" x1="0" y1="102.05" x2="1247.74" y2="102.05" gradientUnits="userSpaceOnUse">
      <stop offset=".33" stop-color="#86efac"/>
      <stop offset=".37" stop-color="#8deca2"/>
      <stop offset=".43" stop-color="#a1e687"/>
      <stop offset=".5" stop-color="#c3dc5c"/>
      <stop offset=".59" stop-color="#f0ce20"/>
      <stop offset=".61" stop-color="#facc15"/>
    </linearGradient>
  </defs>
  <g id="Camada_1-2" data-name="Camada 1">
    <path class="cls-1" d="M204.05,72.61c-14.27,14.5-21.17,32.22-21.17,54.08s9.21,42.81,24.86,57.08c15.42,14.04,33.37,19.33,57.31,19.33h20.71v-35.9h-13.81c-14.96,0-24.86-2.3-34.29-12.43-7.13-7.6-10.82-17.49-10.82-28.31s4.14-21.17,11.28-28.31c8.52-8.75,18.41-11.51,31.99-11.51h15.65v-36.82h-19.1c-26.93,0-46.03,5.98-62.6,22.79ZM0,203.11h158.16v-61.07H0v61.07ZM144.33,73.18H0v57.33h144.33v-57.33ZM0,61.65h158.16V0H0v61.65ZM950.15,49.6h-66.28v153.51h42.12v-116.68h19.79c12.2,0,16.8,3.91,16.8,15.88v100.8h42.12v-102.88c0-36.59-16.57-50.63-54.54-50.63ZM1195.5,166.97V49.6h-42.12v153.28h94.36v-35.9h-52.24ZM377.05,44.6c-44.42,0-77.79,34.52-77.79,79.63s34.06,79.86,78.48,79.86c49.02,0,79.63-33.83,79.63-79.86s-33.83-79.63-80.32-79.63ZM377.51,169.34c-20.02,0-34.29-16.57-34.29-44.65s14.27-44.42,33.83-44.42c23.01,0,36.36,16.8,36.36,44.19,0,28.77-12.2,44.88-35.9,44.88ZM1028.94,202.88h103.11v-35.9h-60.99v-21.4h60.99v-36.82h-60.99v-22.32h60.99v-36.82h-103.11v153.28ZM785.67,44.6c-44.42,0-77.79,34.52-77.79,79.63s34.06,79.86,78.48,79.86c49.02,0,79.63-33.83,79.63-79.86s-33.83-79.63-80.32-79.63ZM786.13,169.34c-20.02,0-34.29-16.57-34.29-44.65s14.27-44.42,33.83-44.42c23.02,0,36.36,16.8,36.36,44.19,0,28.77-12.2,44.88-35.9,44.88ZM741.23,1.32h-199.42v43.05h75.92v158.5h47.57V44.37h75.92V1.32Z"/>
  </g>
</svg>